<svg width="28" height="24" viewBox="0 0 28 24" fill="none" xmlns="http://www.w3.org/2000/svg">
<path d="M25.1309 13.5214C24.4635 15.1832 23.1192 16.2692 22.0005 17.5271C20.9879 18.6656 19.9266 19.7606 18.8941 20.8815C17.3633 22.5434 14.5582 22.3096 13.3258 20.4186C12.8765 19.7292 12.6193 18.9489 12.2496 18.2223C12.1521 18.0306 12.2087 17.9078 12.3986 17.8157C13.0911 17.4797 13.7831 17.1423 14.4695 16.7939C14.7318 16.6608 14.838 16.8145 14.9301 17.0072C15.156 17.4795 15.3659 17.9597 15.6006 18.4275C15.9689 19.1617 16.3433 19.2367 16.8992 18.6393C18.5872 16.825 20.3092 15.0383 21.9161 13.154C23.426 11.3835 22.5464 8.77809 20.5156 8.20913C18.7377 7.71103 17.0385 7.98462 15.3762 8.66827C14.5477 9.00905 13.7902 9.49007 13.0406 9.97507C12.3467 10.424 12.1278 11.2578 12.47 12.0103C12.5146 12.1081 12.5649 12.2049 12.6247 12.2941C12.8673 12.6562 12.8077 12.8829 12.379 13.0616C11.8115 13.2981 11.2627 13.584 10.7219 13.8781C10.3997 14.0533 10.2309 14.019 10.0311 13.6805C8.55405 11.1783 9.79333 8.2101 11.9389 7.15118C13.4161 6.42217 14.8227 5.55633 16.4666 5.22607C18.0275 4.91246 19.5962 4.84562 21.133 5.28486C24.8348 6.34285 26.556 9.8944 25.1309 13.5214Z" fill="#006666"/>
<path d="M3.55395 6.37782C4.42716 2.49925 8.56127 0.530337 12.0952 2.23583C13.1825 2.76057 14.1121 3.46839 14.9719 4.29126C15.113 4.42636 15.2788 4.55226 15.3095 4.78117C15.1708 5.00486 14.9076 4.97965 14.704 5.05719C14.0836 5.29337 13.4796 5.56359 12.8998 5.88332C12.6252 6.03475 12.4436 5.99499 12.2088 5.78717C11.3182 4.99907 10.3169 4.45096 9.0735 4.60056C7.42745 4.79861 6.1968 6.32541 6.33334 8.04186C6.52738 10.4812 6.76012 12.9175 6.98285 15.3545C7.04242 16.0063 7.41878 16.233 8.00279 15.9494C9.49844 15.2229 10.9851 14.4778 12.4747 13.739C13.1086 13.4246 13.7411 13.1073 14.3742 12.7913C15.3853 12.2869 15.6797 11.4465 15.2085 10.4094C14.864 9.65121 14.8685 9.66045 15.635 9.29098C16.1821 9.02734 16.76 8.87552 17.3487 8.75339C17.5154 8.7188 17.6773 8.68999 17.7751 8.90515C18.2345 9.91671 18.5406 10.9525 18.3383 12.0808C18.0918 13.4555 17.3647 14.5435 16.1503 15.1791C13.8181 16.3997 11.4491 17.5533 9.06602 18.6722C6.8539 19.7107 4.39806 18.3931 4.10867 15.9753C3.7924 13.3329 3.60507 10.6749 3.37856 8.02224C3.33264 7.48455 3.42219 6.94681 3.55395 6.37782Z" fill="#008080"/>
</svg>
